<svg id="Layer_1" data-name="Layer 1" xmlns="http://www.w3.org/2000/svg" viewBox="0 0 95.56 294.13"><defs><style>.cls-1,.cls-2,.cls-4{fill:none;}.cls-2,.cls-4{stroke:#e6e6e6;stroke-miterlimit:10;}.cls-3{fill:#f2f2f2;opacity:0.95;}.cls-4{opacity:0.76;}</style></defs><title>bottle2</title><path class="cls-1" d="M-80.44,133.13" transform="translate(0 0)"/><path class="cls-2" d="M26.06,46.63s-30,16-25,39h94s0-29-28-39l-1-9s8-1,8-2c0,0,2-3-4-3v-28s-1-5-6-4h-37s-4,1-3,7c1,2,0,25,0,25s-10-1-2,3l5,2Z" transform="translate(0 0)"/><polygon class="cls-3" points="95.56 89.13 0.56 89.13 4.56 276.13 90.56 276.13 95.56 89.13"/><path class="cls-4" d="M89.56,278.13c0,8.56-16,15.5-42,15.5s-42-6.94-42-15.5Z" transform="translate(0 0)"/></svg>